<?xml version="1.0" standalone="no"?>
<!DOCTYPE svg PUBLIC "-//W3C//DTD SVG 20010904//EN"
 "http://www.w3.org/TR/2001/REC-SVG-20010904/DTD/svg10.dtd">
<svg version="1.0" xmlns="http://www.w3.org/2000/svg"
 width="1280.000000pt" height="1280.000000pt" viewBox="0 0 1280.000000 1280.000000"
 preserveAspectRatio="xMidYMid meet">
<metadata>
Created by potrace 1.11, written by Peter Selinger 2001-2013
</metadata>
<g transform="translate(0.000000,1280.000000) scale(0.100000,-0.100000)"
fill="#000000" stroke="none">
<path d="M6020 12724 c-400 -36 -566 -58 -851 -114 -923 -182 -1804 -575
-2562 -1144 -304 -228 -692 -585 -933 -858 -797 -903 -1319 -2004 -1510 -3187
-184 -1140 -55 -2301 375 -3381 394 -988 1064 -1890 1907 -2568 696 -559 1553
-984 2410 -1196 454 -113 815 -165 1291 -188 785 -37 1656 97 2387 367 1110
410 2008 1046 2741 1940 644 785 1071 1662 1290 2644 276 1243 173 2531 -297
3711 -519 1304 -1471 2410 -2683 3119 -167 98 -544 288 -705 356 -624 261
-1202 408 -1897 481 -141 15 -849 28 -963 18z m890 -49 c1088 -94 2083 -441
2980 -1038 1047 -698 1885 -1736 2347 -2907 513 -1301 581 -2728 193 -4065
-201 -691 -558 -1412 -988 -1995 -299 -405 -697 -815 -1112 -1145 -959 -764
-2083 -1224 -3295 -1349 -837 -87 -1693 -1 -2503 250 -1258 390 -2366 1174
-3157 2234 -685 918 -1103 1985 -1219 3110 -57 550 -39 1150 50 1675 289 1711
1256 3215 2688 4179 821 553 1752 901 2743 1025 137 17 311 32 528 45 122 7
575 -4 745 -19z"/>
<path d="M6060 12534 c-25 -2 -106 -8 -180 -14 -581 -48 -1193 -192 -1740
-410 -398 -159 -831 -387 -1170 -618 -919 -624 -1660 -1491 -2118 -2477 -288
-619 -470 -1265 -546 -1935 -85 -749 -22 -1567 178 -2290 337 -1221 1022
-2288 1991 -3100 304 -255 791 -578 1125 -745 593 -298 1197 -496 1810 -594
1277 -206 2552 -14 3693 555 1529 763 2653 2077 3150 3684 519 1675 301 3481
-601 4980 -837 1392 -2197 2399 -3767 2789 -312 77 -568 122 -910 157 -140 14
-800 28 -915 18z m608 -2044 c873 -61 1675 -383 2350 -943 124 -103 369 -342
470 -460 935 -1087 1233 -2573 790 -3937 -351 -1080 -1155 -1973 -2218 -2463
-355 -164 -707 -261 -1178 -324 -186 -25 -772 -25 -962 0 -690 92 -1267 309
-1825 688 -806 548 -1408 1406 -1645 2348 -97 385 -125 612 -125 1006 0 294 8
412 46 654 163 1042 735 1990 1585 2626 775 580 1756 871 2712 805z"/>
<path d="M9440 8848 c-1610 -270 -2568 -885 -2884 -1848 -40 -124 -83 -298
-88 -367 -2 -15 -5 366 -8 847 l-5 875 -40 -3 c-49 -4 -741 -141 -773 -153
l-23 -9 1 -1142 c1 -1450 2 -1376 -9 -1358 -6 8 -7 18 -4 24 3 5 1 6 -4 3 -18
-11 -36 18 -20 32 8 6 18 7 23 3 5 -4 0 3 -10 15 -10 13 -21 21 -25 19 -8 -5
-25 15 -29 34 -2 8 -8 20 -14 25 -7 7 -8 2 -4 -15 6 -21 5 -22 -4 -7 -7 10 -9
25 -6 33 4 10 2 12 -6 8 -8 -5 -9 -1 -4 12 5 15 4 16 -5 7 -9 -9 -9 -19 0 -44
11 -31 11 -32 -8 -15 -16 14 -18 23 -10 49 8 29 6 35 -31 70 -23 21 -39 41
-36 45 3 5 -6 8 -19 8 -13 0 -21 -4 -19 -8 3 -5 9 -6 14 -3 5 3 18 -12 31 -34
15 -27 27 -38 38 -34 11 4 10 1 -4 -11 -15 -12 -16 -15 -3 -10 13 4 16 0 15
-15 -2 -29 -8 -27 -39 13 -19 24 -24 36 -15 39 7 4 6 6 -4 6 -16 1 -59 41 -44
41 5 0 0 7 -11 16 -10 8 -13 13 -7 9 7 -3 20 -2 28 2 12 7 10 14 -15 41 -26
29 -70 46 -55 22 4 -6 11 -8 16 -5 5 4 9 -1 9 -10 0 -9 4 -13 10 -10 6 4 7 -1
3 -11 -4 -11 -8 -13 -11 -6 -2 7 -8 10 -13 6 -5 -3 -9 2 -9 10 0 9 -4 16 -9
16 -5 0 -19 13 -30 28 -14 20 -17 32 -9 43 8 11 8 10 3 -6 -3 -11 -3 -16 1
-12 4 4 13 2 21 -4 9 -9 13 -8 13 0 0 6 -4 11 -10 11 -5 0 -10 7 -10 15 0 18
-12 19 -27 4 -7 -7 -19 1 -42 29 -17 22 -31 45 -31 51 0 6 -4 11 -9 11 -14 0
-63 78 -58 92 3 8 6 6 6 -5 1 -11 6 -15 13 -11 7 4 8 3 4 -4 -4 -7 -2 -12 4
-12 6 0 8 -4 5 -10 -3 -5 1 -10 10 -10 14 0 13 5 -6 33 -13 17 -27 35 -31 38
-5 3 -10 291 -11 640 -2 557 -4 634 -17 632 -16 -2 -452 -85 -673 -128 -70
-14 -139 -25 -154 -25 l-26 0 6 -1087 c5 -707 4 -1083 -3 -1073 -5 8 -7 24 -4
35 4 16 3 17 -5 5 -6 -8 -11 -10 -12 -5 -1 6 -2 17 -3 25 -3 30 -79 167 -100
180 -17 10 -19 10 -8 -1 6 -7 12 -18 12 -23 0 -6 -7 -2 -15 8 -8 10 -12 23 -9
27 3 5 0 9 -6 9 -6 0 -8 5 -5 10 5 8 12 7 23 -2 14 -11 14 -10 -1 12 -9 14
-25 40 -34 58 -9 18 -24 32 -35 32 -12 0 -28 20 -48 60 -28 55 -29 65 -7 61 4
-1 2 8 -5 19 -11 17 -14 17 -18 4 -4 -11 -11 -5 -23 20 -12 26 -13 36 -4 37 6
0 3 4 -8 9 -11 5 -14 9 -7 9 6 1 12 6 12 12 0 6 -7 8 -17 5 -10 -4 -14 -4 -10
0 4 4 -1 17 -10 28 -17 19 -17 20 -1 7 14 -10 13 -5 -5 27 -23 43 -37 51 -17
10 11 -22 10 -22 -4 -4 -9 11 -16 23 -16 27 0 4 -5 20 -11 36 -9 20 -11 157
-10 478 2 248 0 649 -5 893 l-7 442 -35 0 c-37 0 -607 -104 -657 -121 -17 -5
-58 -13 -90 -17 l-59 -7 2 -840 c2 -462 7 -889 13 -950 10 -110 10 -111 85
-258 236 -467 476 -830 759 -1146 16 -18 29 -37 27 -42 -1 -5 4 -8 10 -7 7 2
12 -3 10 -10 -1 -6 4 -11 10 -10 7 2 12 -3 10 -10 -1 -6 4 -11 10 -10 7 2 12
-3 10 -10 -1 -8 2 -11 7 -8 12 8 34 -20 27 -33 -4 -5 -1 -13 5 -17 8 -4 9 -3
5 4 -15 25 9 10 58 -36 28 -26 66 -59 84 -74 17 -15 32 -30 32 -34 0 -3 -7 -1
-15 6 -12 10 -15 10 -15 0 0 -19 51 -59 66 -53 8 3 11 10 7 17 -4 6 1 5 10 -3
12 -9 31 -12 60 -8 35 5 38 5 17 -4 -14 -6 -37 -9 -52 -6 -16 2 -28 1 -28 -1
0 -10 50 -51 70 -57 11 -3 20 -11 20 -16 0 -5 12 -14 26 -19 15 -6 38 -19 53
-28 36 -25 86 -27 109 -4 12 12 25 16 38 12 40 -15 371 20 384 41 3 4 30 9 60
11 37 2 54 7 52 16 -1 7 8 12 23 12 24 0 24 2 19 57 -3 32 -10 61 -16 64 -7 4
-5 9 3 13 8 3 -2 4 -21 1 -28 -4 -31 -2 -17 6 27 16 63 7 59 -13 -2 -10 2 -18
8 -18 5 0 10 12 10 26 0 15 8 33 18 40 16 13 16 13 -3 15 -16 1 -15 2 5 8 l25
7 5 294 c3 162 9 289 13 283 5 -7 5 -13 0 -13 -4 0 0 -5 10 -11 9 -6 15 -14
12 -20 -4 -5 1 -9 9 -9 9 0 16 -8 16 -17 0 -9 3 -13 7 -10 3 4 47 -32 97 -81
120 -116 220 -206 296 -267 35 -27 83 -69 108 -92 24 -24 48 -40 53 -38 4 3
10 -4 14 -15 3 -11 12 -20 20 -20 7 0 15 -7 18 -15 5 -11 19 -13 64 -10 32 3
85 5 118 5 44 1 55 3 40 10 -16 7 -12 9 21 9 23 1 58 8 77 16 20 8 57 15 82
15 33 0 45 4 45 15 0 9 9 15 24 15 22 0 23 3 18 50 -4 44 -2 50 14 51 14 1 13
3 -6 9 -25 8 -24 8 5 9 23 1 27 3 15 11 -13 8 -12 10 3 10 12 0 17 8 17 26 0
23 3 26 30 22 17 -3 30 -1 30 4 0 4 11 8 24 8 34 0 39 11 39 95 -1 59 2 71 12
62 7 -7 11 -15 8 -19 -2 -5 1 -16 6 -25 9 -16 10 -16 11 4 0 16 4 21 16 16 13
-5 15 -2 7 13 -6 10 -8 48 -6 84 7 118 18 81 21 -68 2 -126 0 -144 -12 -129
-7 9 -11 29 -8 43 3 19 1 25 -7 20 -6 -4 -11 -17 -12 -29 0 -21 -1 -21 -8 -2
-7 17 -8 17 -15 -8 -3 -16 -4 -32 -1 -37 4 -6 2 -10 -4 -10 -6 0 -8 -7 -5 -15
5 -12 10 -13 20 -4 11 9 18 8 29 -1 13 -11 14 -10 10 1 -4 10 10 18 47 28 29
7 61 14 70 15 10 1 21 5 24 9 11 11 26 8 19 -3 -3 -5 0 -10 7 -10 7 -1 2 -10
-12 -22 -14 -11 -18 -19 -10 -16 8 3 24 2 36 -3 14 -5 21 -3 21 6 0 7 -8 10
-21 7 -19 -5 -19 -3 4 16 21 18 22 21 5 15 -18 -6 -18 -5 -6 10 15 18 86 41
100 32 5 -3 11 1 14 7 4 10 7 11 18 1 13 -13 6 -16 -43 -16 -22 0 -25 -42 -3
-51 9 -3 15 0 15 9 0 11 11 15 40 15 22 0 40 4 40 9 0 5 12 12 26 15 21 6 24
9 14 21 -7 8 -20 15 -28 15 -13 0 -13 -2 3 -13 16 -13 15 -14 -14 -9 -17 2
-34 9 -38 15 -3 5 -1 7 4 4 6 -4 25 0 43 9 17 9 44 17 58 18 15 0 33 7 40 13
7 7 19 13 25 13 7 0 -1 -12 -18 -27 -16 -14 -31 -21 -33 -15 -4 12 -42 4 -42
-9 0 -5 6 -9 14 -9 8 0 17 -6 19 -12 4 -10 6 -10 6 0 1 6 8 12 16 12 8 0 23 4
33 10 9 5 30 14 45 20 16 5 26 14 23 18 -3 5 13 8 34 8 22 -1 40 2 40 7 0 8
-14 10 -54 8 -35 -2 -31 7 5 12 13 2 40 -2 61 -9 20 -7 38 -11 40 -9 2 2 2
-12 -1 -33 l-6 -37 -3 33 c-4 37 -28 39 -26 3 1 -18 -3 -21 -21 -17 -11 3 -34
-2 -50 -10 -16 -8 -39 -13 -51 -10 -11 3 -29 -1 -40 -9 -10 -8 -25 -15 -33
-15 -25 0 -90 -35 -91 -47 0 -8 -15 -13 -40 -13 -22 0 -40 -4 -40 -9 0 -5 -8
-12 -17 -14 -17 -4 -17 -5 0 -6 10 -1 17 -9 17 -21 0 -17 3 -19 19 -10 26 13
58 13 63 -2 3 -7 10 -8 17 -3 11 6 10 10 -3 17 -15 9 -14 12 9 34 14 13 33 24
41 24 7 0 14 7 14 15 0 11 12 15 49 15 28 0 53 5 56 10 10 16 81 12 95 -5 9
-11 16 -12 25 -5 6 5 15 7 19 3 4 -4 11 -1 17 7 7 13 10 13 18 1 5 -8 11 -9
15 -3 3 6 28 18 55 27 27 9 52 23 55 31 3 7 12 14 21 14 8 0 15 5 15 10 0 6 6
10 14 10 8 0 29 8 48 17 54 27 62 30 97 38 20 4 35 14 38 26 4 13 14 19 34 19
22 0 29 5 29 20 0 22 16 27 22 8 3 -9 12 -8 32 6 16 10 38 19 51 20 12 2 32
13 44 25 12 12 26 19 30 16 5 -3 33 6 63 20 29 14 61 25 71 25 10 0 28 9 40
21 12 11 33 25 47 31 24 10 24 11 5 19 -17 8 -16 8 6 4 18 -3 32 2 44 15 10
11 24 20 32 20 7 0 13 5 13 11 0 7 -10 9 -27 5 -27 -6 -27 -6 -9 9 11 8 23 15
28 15 4 0 8 5 8 11 0 8 -5 7 -15 -1 -13 -11 -14 -10 -9 4 7 18 20 21 29 6 9
-15 25 -12 19 4 -6 16 31 40 46 31 14 -9 12 13 -2 30 -11 11 -19 8 -47 -18
-19 -18 -31 -26 -27 -19 5 7 1 12 -11 12 -15 0 -15 2 -3 9 8 6 18 7 23 4 4 -3
14 2 20 12 7 9 19 17 28 18 8 2 29 13 47 25 18 13 32 19 32 13 0 -6 -5 -11
-12 -11 -9 0 -9 -3 0 -12 10 -10 15 -10 21 1 7 11 9 11 14 0 4 -10 6 -10 6 -1
1 6 8 12 16 12 8 0 22 11 31 25 9 14 20 23 24 20 5 -3 12 0 16 6 3 6 2 14 -4
18 -7 4 -4 11 8 19 12 7 20 8 20 2 0 -5 -5 -10 -12 -10 -9 0 -9 -3 -1 -11 8
-8 23 -3 54 18 24 15 46 31 47 36 2 4 9 4 14 1 7 -5 8 -2 4 5 -5 8 -3 12 5 10
8 -1 21 -1 29 0 13 1 13 3 1 10 -10 6 -28 5 -50 -5 -32 -12 -34 -12 -17 1 11
8 24 15 28 15 5 0 18 9 30 20 12 11 24 18 27 15 2 -3 -4 -12 -15 -21 -18 -14
-18 -15 5 -8 16 4 21 3 17 -5 -4 -6 -2 -11 4 -11 7 0 9 7 6 16 -4 12 -2 15 9
10 17 -6 21 14 5 30 -12 12 96 88 123 86 11 0 17 5 15 16 -2 10 5 17 17 19 16
1 16 1 2 -3 -9 -3 -15 -10 -11 -15 8 -14 34 9 28 25 -3 7 2 19 11 26 8 7 15
10 15 6 0 -3 9 3 20 14 11 11 28 20 39 20 20 0 48 27 37 37 -3 3 -6 2 -6 -4 0
-6 -8 -14 -17 -17 -15 -6 -15 -4 2 14 12 13 22 17 29 10 13 -10 71 22 59 33
-3 4 1 7 9 7 9 0 26 14 39 32 13 17 35 42 47 56 17 18 19 23 7 18 -11 -4 -15
-2 -12 6 2 7 10 13 18 13 20 1 39 14 39 28 0 7 -7 3 -15 -7 -8 -11 -15 -15
-15 -10 0 6 15 23 32 40 18 16 24 19 14 7 -11 -13 -14 -23 -8 -23 5 0 20 20
32 45 21 44 35 59 55 60 6 0 9 8 7 17 -1 9 9 25 22 36 14 11 23 21 21 24 -2 2
6 15 18 29 12 13 19 20 15 15 -5 -6 -8 -15 -8 -20 0 -6 7 0 16 12 8 12 12 27
8 34 -4 6 -3 8 3 5 6 -4 23 12 38 36 19 27 22 37 10 27 -15 -12 -14 -7 6 27
13 23 27 39 31 37 4 -3 5 3 1 12 -5 13 -3 15 8 9 8 -4 11 -5 7 0 -4 4 8 37 26
74 102 201 165 480 166 723 0 115 -17 298 -31 319 -9 15 30 21 -1189 -210
-146 -28 -278 -53 -295 -56 -16 -3 -156 -30 -310 -59 -358 -69 -335 -65 -335
-53 0 7 -4 7 -12 -1 -15 -15 -38 -16 -38 -2 0 6 7 10 15 10 8 0 15 9 15 20 0
13 7 20 20 20 16 0 20 7 20 34 0 19 5 38 10 41 6 3 10 11 10 16 0 19 -20 -2
-35 -37 -16 -38 -35 -45 -35 -12 0 21 0 21 -15 2 -15 -19 -15 -19 -8 1 6 18 5
19 -13 5 -18 -14 -18 -14 -5 3 16 20 47 23 54 5 4 -9 6 -9 6 1 1 8 7 22 15 30
7 9 17 27 20 41 l7 25 -13 -23 c-14 -23 -58 -58 -58 -46 0 4 10 17 23 29 12
12 37 41 55 64 19 23 38 38 44 35 6 -4 8 -3 5 3 -8 13 37 56 47 46 4 -5 6 -3
4 3 -5 15 144 142 161 136 8 -3 11 0 7 6 -3 6 12 24 33 41 25 20 42 28 46 21
4 -6 13 -9 21 -6 8 3 14 1 14 -4 0 -6 5 -10 11 -10 6 0 9 6 6 14 -3 8 -1 16 6
19 6 2 3 6 -7 10 -9 4 -15 3 -12 -2 3 -5 -3 -11 -14 -14 -38 -10 -19 11 55 62
42 28 77 51 79 51 3 0 28 16 57 35 37 24 56 31 65 24 8 -6 14 -5 18 6 3 9 2
13 -4 10 -6 -3 -10 -4 -10 -1 0 3 27 19 59 36 42 21 62 26 67 18 4 -6 3 -8 -4
-4 -6 3 -13 2 -17 -3 -3 -6 4 -8 16 -6 24 5 38 15 21 15 -7 0 -12 5 -12 11 0
5 5 7 10 4 6 -3 10 -2 10 3 0 6 7 13 16 16 12 5 15 2 10 -10 -4 -10 -2 -14 6
-11 7 2 12 11 10 19 -1 9 5 18 13 22 9 3 13 2 10 -4 -3 -6 -1 -10 4 -10 6 0
11 8 11 18 0 14 2 15 10 2 9 -13 10 -13 10 0 0 16 48 43 61 34 5 -3 9 -1 9 4
0 14 210 101 400 166 169 58 338 106 530 150 63 15 134 31 158 38 l42 11 0
293 c0 350 10 328 -140 302z m-2046 -1755 c4 -5 13 -8 19 -8 17 0 15 -37 -3
-43 -13 -5 -13 -3 0 14 8 10 10 16 5 11 -4 -4 -17 0 -27 10 -10 9 -18 11 -18
5 0 -6 5 -14 10 -17 18 -11 10 -26 -10 -20 -30 9 -24 -12 8 -30 l27 -15 -27 6
c-18 4 -28 2 -28 -5 0 -6 -5 -11 -11 -11 -5 0 -7 5 -4 10 4 6 2 17 -5 25 -9
10 -7 16 7 24 10 6 14 11 9 11 -10 0 23 40 34 40 4 0 10 -3 14 -7z m-74 -89
c0 -8 -5 -12 -10 -9 -6 4 -8 11 -5 16 9 14 15 11 15 -7z m1510 -363 c0 -6 -4
-12 -8 -15 -5 -3 -9 1 -9 9 0 8 4 15 9 15 4 0 8 -4 8 -9z m-44 -10 c-19 -7
-18 -8 4 -14 22 -6 23 -8 8 -24 -8 -10 -17 -25 -20 -33 -3 -8 -16 -15 -29 -15
-18 -1 -24 4 -24 22 0 13 3 23 8 23 4 0 7 -8 7 -17 0 -12 5 -9 15 11 8 15 15
29 15 30 0 8 -36 1 -41 -7 -4 -5 -15 -7 -24 -3 -23 9 -14 16 27 23 18 3 35 7
37 9 2 2 11 4 20 3 12 0 11 -2 -3 -8z m-110 -20 c-4 -5 -1 -11 5 -13 6 -2 -8
-3 -30 -3 -44 0 -55 11 -18 18 39 8 48 7 43 -2z m-72 -26 c5 -13 10 -14 27 -5
11 7 23 9 27 6 3 -3 0 -6 -7 -6 -7 0 -10 -4 -7 -8 10 -16 -39 -7 -56 10 -14
14 -15 18 -4 18 8 0 17 -7 20 -15z m-59 -5 c4 -6 12 -7 18 -4 7 4 9 3 5 -1 -5
-5 -20 -10 -35 -11 -21 -2 -24 -1 -13 6 13 8 13 10 -2 10 -9 0 -19 -4 -22 -9
-3 -4 -18 -6 -33 -3 -28 6 -28 6 7 13 54 10 68 10 75 -1z m150 -10 c-3 -5 -12
-10 -18 -10 -7 0 -6 4 3 10 19 12 23 12 15 0z m-277 -7 c-29 -7 -21 -19 22
-33 22 -7 40 -20 40 -27 0 -8 7 -21 16 -30 11 -11 15 -31 13 -69 -3 -61 5 -76
25 -49 7 10 18 15 25 11 8 -5 11 -3 9 5 -1 8 1 15 6 16 5 1 18 20 29 42 11 22
28 42 39 44 10 3 16 1 12 -4 -6 -10 9 -12 20 -2 3 4 15 7 26 8 22 2 16 -10
-27 -53 -17 -17 -23 -19 -23 -7 0 8 6 15 14 15 8 0 18 5 22 12 5 7 2 9 -8 5
-9 -3 -20 -1 -26 5 -7 7 -12 -1 -18 -24 -12 -54 -13 -58 -3 -52 5 3 6 10 3 16
-5 7 -2 8 5 4 15 -9 5 -21 -159 -186 -336 -340 -794 -611 -1400 -829 -201 -73
-210 -76 -345 -116 -66 -20 -137 -41 -157 -47 l-38 -11 0 -68 c0 -37 -4 -70
-8 -73 -5 -3 -8 -37 -8 -75 1 -39 -2 -71 -6 -71 -8 0 -12 78 -9 145 1 21 -1
26 -7 16 -7 -10 -12 -7 -21 15 -9 24 -10 11 -8 -69 1 -53 -1 -97 -5 -97 -5 0
-8 284 -8 632 0 477 3 629 12 620 13 -13 52 3 42 19 -3 6 -12 3 -20 -8 -11
-13 -14 -14 -12 -3 2 8 -3 14 -9 12 -7 -1 -13 4 -13 11 0 8 7 14 15 14 8 0 12
-3 10 -7 -7 -11 79 -6 87 5 4 5 34 9 66 10 33 0 58 3 55 8 -2 4 0 7 6 7 5 0
13 -4 16 -10 7 -12 58 -13 69 -2 4 4 26 12 49 19 33 9 37 11 17 13 -21 2 -20
3 10 10 19 5 48 6 64 3 23 -5 27 -3 21 8 -5 8 -5 11 -1 8 4 -4 31 -1 59 7 29
8 59 14 67 14 30 -1 -13 -17 -62 -24 -27 -4 -48 -11 -48 -17 0 -5 -10 -9 -22
-9 -12 0 -18 -3 -15 -6 4 -4 30 0 59 9 29 9 69 18 88 21 19 3 62 10 95 16 33
5 63 10 68 10 4 0 16 9 27 20 12 12 36 22 58 23 20 1 39 5 42 8 3 4 48 14 101
23 53 9 111 19 129 23 22 4 31 3 27 -5 -5 -6 1 -8 15 -4 16 4 18 7 8 11 -8 2
14 10 50 17 39 7 69 8 74 3 15 -14 26 -11 20 6 -4 8 -1 15 5 15 6 0 11 -6 11
-12 0 -8 3 -9 8 -3 4 6 32 10 62 11 30 1 102 11 160 22 58 12 107 22 110 22 3
0 -2 5 -10 10 -12 8 -10 10 10 10 62 2 90 6 90 14 0 4 12 5 26 2 14 -4 23 -3
20 2 -2 4 10 7 27 6 18 -1 35 3 39 9 6 9 12 9 28 -1 17 -10 20 -10 20 3 0 9 9
15 23 14 16 -1 18 -2 5 -6z m326 -42 c3 -5 -1 -14 -9 -21 -13 -10 -15 -9 -15
9 0 21 14 28 24 12z m-641 -18 c-7 -2 -19 -2 -25 0 -7 3 -2 5 12 5 14 0 19 -2
13 -5z m-55 -10 c-10 -2 -26 -2 -35 0 -10 3 -2 5 17 5 19 0 27 -2 18 -5z m-61
-9 c-3 -3 -12 -4 -19 -1 -8 3 -5 6 6 6 11 1 17 -2 13 -5z m-72 -14 c-3 -5 -21
-10 -38 -9 -31 1 -31 1 -7 9 36 11 52 11 45 0z m652 -47 c-3 -10 -5 -4 -5 12
0 17 2 24 5 18 2 -7 2 -21 0 -30z m-1317 -77 c0 -2 -13 -6 -29 -8 -17 -2 -28
-1 -25 4 5 8 54 12 54 4z m-73 -12 c-3 -3 -12 -4 -19 -1 -8 3 -5 6 6 6 11 1
17 -2 13 -5z m-387 -68 c0 -2 -7 -9 -15 -16 -13 -11 -14 -10 -9 4 5 14 24 23
24 12z m-45 -16 c-3 -5 -11 -10 -16 -10 -6 0 -7 5 -4 10 3 6 11 10 16 10 6 0
7 -4 4 -10z m2313 -450 c-7 -10 -14 -17 -16 -15 -2 2 -12 -4 -23 -13 -14 -12
-16 -18 -6 -25 9 -6 8 -7 -3 -4 -8 2 -24 -3 -35 -11 -11 -8 3 8 32 36 54 54
72 65 51 32z m-3513 -20 c3 -6 -1 -7 -9 -4 -18 7 -21 14 -7 14 6 0 13 -4 16
-10z m45 -14 c0 -2 -9 -6 -20 -9 -11 -3 -18 -1 -14 4 5 9 34 13 34 5z m-1517
-151 c4 -8 1 -17 -5 -21 -7 -4 -8 -3 -4 4 4 7 2 12 -3 12 -6 0 -11 5 -11 10 0
15 17 12 23 -5z m74 -145 c6 -16 10 -30 7 -30 -2 0 -10 14 -19 30 -9 17 -12
30 -7 30 4 0 13 -13 19 -30z m43 -71 c15 -28 5 -23 -15 7 -9 15 -12 23 -6 20
6 -4 16 -16 21 -27z m4285 -39 c-3 -5 -12 -10 -18 -10 -7 0 -6 4 3 10 19 12
23 12 15 0z m-97 -61 c-2 -6 -8 -10 -13 -10 -6 0 -20 -9 -31 -20 -16 -15 -24
-17 -29 -8 -5 8 -4 10 3 5 7 -4 12 -3 12 1 0 5 12 16 28 25 32 21 35 21 30 7z
m-256 -174 c-3 -5 -7 -4 -10 3 -6 19 -19 14 -26 -10 -5 -22 -6 -22 -20 -3 -14
19 -15 19 -21 -8 -4 -15 -14 -27 -21 -27 -12 0 -13 4 -3 23 17 31 31 38 48 24
12 -10 14 -9 8 6 -4 10 -3 16 2 12 5 -3 12 -1 16 5 4 6 11 5 19 -3 8 -6 11
-16 8 -22z m-147 -35 c-3 -5 -12 -10 -18 -10 -7 0 -6 4 3 10 19 12 23 12 15 0z
m101 -27 c-10 -10 -19 5 -10 18 6 11 8 11 12 0 2 -7 1 -15 -2 -18z m-140 0
c-2 -9 -10 -17 -19 -19 -30 -4 -16 20 20 35 1 1 0 -7 -1 -16z m70 5 c5 -7 3
-8 -6 -3 -10 6 -12 4 -7 -9 4 -10 3 -15 -3 -11 -13 8 -13 35 -1 35 6 0 13 -5
17 -12z m-122 -26 c3 -5 -1 -9 -9 -9 -8 0 -15 4 -15 9 0 4 4 8 9 8 6 0 12 -4
15 -8z m-41 -40 c-4 -9 -9 -10 -16 -3 -6 6 -18 11 -26 11 -11 0 -9 -5 7 -16
25 -17 30 -36 7 -28 -8 4 -13 9 -10 13 2 4 -9 8 -25 8 -16 0 -27 -4 -24 -9 3
-4 -3 -5 -12 -1 -12 5 -15 3 -9 -6 5 -10 2 -11 -13 -7 -14 5 -28 -1 -46 -17
-29 -27 -34 -42 -11 -33 8 3 15 1 15 -4 0 -6 -8 -10 -17 -11 -15 0 -15 -2 2
-9 15 -6 11 -7 -17 -7 -44 1 -46 4 -15 18 22 9 22 10 -2 5 -13 -3 -33 -1 -43
5 -12 6 -18 6 -18 -1 0 -5 -7 -10 -15 -10 -8 0 -15 -4 -15 -9 0 -5 -6 -9 -12
-8 -33 1 -49 -4 -43 -13 4 -6 -7 -13 -24 -16 -17 -4 -28 -10 -25 -15 3 -5 1
-9 -5 -9 -5 0 -13 5 -16 10 -3 6 -12 10 -18 10 -7 -1 -1 -9 12 -20 12 -11 28
-17 35 -13 8 4 8 3 0 -6 -9 -10 -19 -9 -44 4 -24 13 -35 14 -44 5 -8 -8 -7
-10 5 -5 10 4 20 2 24 -4 3 -7 0 -8 -9 -5 -9 4 -16 1 -16 -6 0 -9 -4 -9 -17 1
-11 10 -14 10 -9 2 4 -9 -3 -17 -21 -25 -15 -7 -32 -19 -36 -26 -7 -10 -22
-12 -60 -7 -66 9 -96 25 -34 18 31 -4 47 -2 47 6 0 6 7 11 16 11 14 0 15 -2 3
-17 -12 -14 -12 -16 0 -12 8 3 20 20 25 37 9 27 14 30 25 20 10 -9 12 -9 7 -1
-4 8 3 15 21 19 15 4 42 16 60 26 18 11 37 17 43 13 5 -3 10 -1 10 4 0 6 9 11
19 11 11 0 22 4 25 9 3 5 16 11 28 14 13 3 48 15 78 26 53 21 54 21 30 2 l-25
-20 23 6 c13 3 28 15 32 27 5 11 9 17 10 11 0 -6 3 -6 8 0 4 6 34 22 67 37 65
28 116 33 108 10z m172 8 c3 -5 1 -10 -4 -10 -6 0 -11 5 -11 10 0 6 2 10 4 10
3 0 8 -4 11 -10z m-88 -46 c-3 -3 -12 -4 -19 -1 -8 3 -5 6 6 6 11 1 17 -2 13
-5z m-1448 -106 c1 -10 -3 -18 -9 -18 -5 0 -10 17 -9 38 0 30 2 33 9 17 5 -11
9 -28 9 -37z m1136 2 c3 -5 1 -10 -4 -10 -6 0 -11 5 -11 10 0 6 2 10 4 10 3 0
8 -4 11 -10z m-1118 -32 c-3 -8 -6 -5 -6 6 -1 11 2 17 5 13 3 -3 4 -12 1 -19z
m-17 -50 c0 -12 -3 -18 -7 -14 -10 10 -11 46 -1 40 4 -3 8 -15 8 -26z m790 22
c0 -5 -9 -10 -19 -10 -11 0 -23 -4 -26 -10 -3 -5 -18 -9 -33 -9 -18 1 -21 3
-9 6 10 3 30 11 45 19 32 17 42 18 42 4z m-210 -64 c0 -2 -6 -9 -13 -15 -10
-8 -14 -7 -14 4 0 8 6 15 14 15 7 0 13 -2 13 -4z m270 -36 c0 -5 -9 -10 -21
-10 -11 0 -17 5 -14 10 3 6 13 10 21 10 8 0 14 -4 14 -10z m-820 -99 c0 -5 -8
-11 -18 -13 -13 -4 -18 1 -20 19 -2 21 1 22 18 13 11 -6 20 -15 20 -19z m-197
-48 c-7 -2 -19 -2 -25 0 -7 3 -2 5 12 5 14 0 19 -2 13 -5z m-58 -13 c-28 -12
-37 -12 -30 0 3 6 16 10 28 9 21 0 21 -1 2 -9z m-27 -18 l23 -18 -33 -2 c-26
-2 -30 0 -18 8 11 8 5 10 -25 6 -22 -2 -41 -9 -43 -16 -3 -8 -9 -7 -20 2 -12
10 -16 10 -19 0 -3 -6 -9 -10 -14 -6 -5 3 -9 0 -9 -7 0 -10 -3 -10 -12 -1 -7
7 -19 12 -27 12 -13 0 -13 -2 -2 -9 8 -5 -1 -8 -27 -7 -22 0 -38 4 -36 8 5 8
119 24 147 21 9 -2 17 1 17 6 0 8 16 13 65 19 6 1 20 -6 33 -16z m59 2 c-3 -3
-12 -4 -19 -1 -8 3 -5 6 6 6 11 1 17 -2 13 -5z m-110 -30 c-3 -3 -12 -4 -19
-1 -8 3 -5 6 6 6 11 1 17 -2 13 -5z m-63 -12 c3 -5 -1 -9 -9 -9 -8 0 -12 4 -9
9 3 4 7 8 9 8 2 0 6 -4 9 -8z m-248 -27 c-30 -26 -35 -28 -76 -29 -14 -1 -24
-6 -23 -11 1 -6 -16 -11 -38 -11 -21 0 -39 3 -39 8 0 4 15 8 33 8 l32 1 -24
13 c-24 13 -24 14 20 22 24 4 59 7 77 7 17 -1 32 3 32 8 0 5 8 9 18 9 13 0 11
-6 -12 -25z m31 -21 c-3 -3 -12 -4 -19 -1 -8 3 -5 6 6 6 11 1 17 -2 13 -5z
m210 -40 c-3 -3 -12 -4 -19 -1 -8 3 -5 6 6 6 11 1 17 -2 13 -5z m-1097 -85
c-12 -9 -11 -10 8 -6 12 3 19 1 16 -4 -3 -5 -21 -7 -40 -3 -28 5 -33 4 -28 -9
3 -8 0 -18 -7 -23 -8 -5 -11 -2 -7 8 5 13 -1 15 -40 11 -26 -3 -64 -9 -85 -13
-21 -5 -36 -5 -32 -2 4 4 52 16 108 28 127 26 125 26 107 13z m-226 -55 c5
-13 3 -14 -6 -7 -7 6 -20 13 -28 16 -10 4 -8 6 6 6 12 1 25 -6 28 -15z m102 4
c4 -6 3 -8 -4 -4 -6 3 -22 2 -36 -4 -32 -12 -35 -3 -3 10 30 12 35 12 43 -2z
m47 5 c-7 -2 -19 -2 -25 0 -7 3 -2 5 12 5 14 0 19 -2 13 -5z m-193 -13 c11 -8
6 -9 -17 -5 -18 3 -33 2 -33 -2 0 -5 -13 -8 -29 -8 -34 0 -28 11 9 18 43 8 55
7 70 -3z m207 -6 c-3 -3 -12 -4 -19 -1 -8 3 -5 6 6 6 11 1 17 -2 13 -5z m-355
-25 c-12 -11 -27 -17 -32 -14 -5 3 -7 -1 -4 -9 3 -9 -3 -19 -16 -26 -15 -8
-20 -8 -16 -1 9 14 -9 14 -35 1 -13 -7 -19 -7 -19 0 0 5 8 10 18 10 14 0 14 2
3 9 -8 5 -21 7 -30 4 -9 -3 -6 2 7 12 16 12 32 14 53 10 24 -5 30 -4 24 5 -5
9 -2 10 14 5 12 -4 21 -2 21 4 0 6 8 11 17 11 14 0 13 -3 -5 -21z m-437 -19
c-3 -5 -1 -10 4 -10 6 0 11 -5 11 -11 0 -8 -5 -8 -15 1 -13 11 -12 30 1 30 3
0 2 -4 -1 -10z m282 -5 c0 -10 -6 -14 -14 -10 -8 3 -22 5 -31 6 -10 1 -7 4 8
9 36 12 37 11 37 -5z m-69 -11 c30 -9 28 -19 -5 -22 -20 -1 -24 1 -14 7 11 7
10 10 -5 14 -10 2 -14 5 -9 6 6 0 20 -2 33 -5z m224 -10 c-13 -9 -26 -13 -29
-10 -4 3 -1 6 6 6 7 0 9 5 6 10 -3 6 4 10 17 10 l22 0 -22 -16z m368 -34 c0
-5 8 -10 17 -10 9 0 14 -2 11 -5 -9 -9 -58 6 -52 16 7 12 24 11 24 -1z m-640
-30 c0 -5 -4 -10 -10 -10 -5 0 -10 5 -10 10 0 6 5 10 10 10 6 0 10 -4 10 -10z
m348 -37 c-10 -2 -28 -2 -40 0 -13 2 -5 4 17 4 22 1 32 -1 23 -4z m-268 -13
c0 -5 -5 -10 -11 -10 -5 0 -7 5 -4 10 3 6 8 10 11 10 2 0 4 -4 4 -10z"/>
<path d="M7350 7066 c0 -2 7 -7 16 -10 8 -3 12 -2 9 4 -6 10 -25 14 -25 6z"/>
<path d="M8757 6570 c-3 -11 -2 -20 3 -20 4 0 10 9 13 20 3 11 2 20 -3 20 -4
0 -10 -9 -13 -20z"/>
<path d="M7740 6430 c-9 -6 -10 -10 -3 -10 6 0 15 5 18 10 8 12 4 12 -15 0z"/>
<path d="M7690 6420 c0 -5 7 -7 15 -4 8 4 15 8 15 10 0 2 -7 4 -15 4 -8 0 -15
-4 -15 -10z"/>
<path d="M7295 6350 c-13 -5 -14 -9 -5 -9 8 0 24 4 35 9 13 5 14 9 5 9 -8 0
-24 -4 -35 -9z"/>
<path d="M8470 6325 c-11 -13 -8 -15 19 -15 29 0 31 2 17 15 -8 8 -17 15 -19
15 -3 0 -10 -7 -17 -15z"/>
<path d="M8490 6289 c0 -5 5 -7 10 -4 6 3 10 8 10 11 0 2 -4 4 -10 4 -5 0 -10
-5 -10 -11z"/>
<path d="M6880 6263 c0 -10 4 -14 8 -8 4 6 11 13 16 18 5 4 2 7 -7 7 -10 0
-17 -8 -17 -17z"/>
<path d="M8415 6242 c-15 -11 -17 -32 -2 -26 8 3 14 11 14 19 0 8 -1 15 -1 15
-1 0 -5 -4 -11 -8z"/>
<path d="M6472 5743 c1 -275 2 -294 9 -173 5 74 7 179 5 232 -3 58 0 100 6
104 13 8 4 137 -10 142 -9 3 -12 -74 -10 -305z"/>
<path d="M5770 4449 c-28 -8 -27 -9 10 -14 32 -4 60 4 60 17 0 6 -6 5 -16 -3
-10 -8 -18 -9 -22 -3 -4 6 -18 7 -32 3z"/>
<path d="M4513 4195 c16 -9 31 -14 35 -11 8 9 0 14 -33 21 l-30 6 28 -16z"/>
<path d="M8149 7703 c-13 -16 -12 -17 4 -4 9 7 17 15 17 17 0 8 -8 3 -21 -13z"/>
<path d="M8105 7700 c3 -5 0 -11 -7 -12 -7 0 -17 -2 -23 -2 -5 -1 -16 -5 -23
-9 -6 -5 -23 -14 -36 -20 l-23 -13 24 -11 c21 -10 23 -9 18 7 -5 16 11 31 40
34 26 3 55 18 50 27 -4 5 -11 9 -16 9 -6 0 -7 -4 -4 -10z"/>
<path d="M8056 7645 c-3 -8 -1 -15 4 -15 6 0 10 7 10 15 0 8 -2 15 -4 15 -2 0
-6 -7 -10 -15z"/>
<path d="M7948 7614 c-16 -8 -28 -19 -28 -25 0 -6 -4 -8 -9 -4 -5 3 -12 1 -15
-4 -10 -16 22 -6 44 14 16 14 23 16 32 7 15 -15 32 -16 23 -2 -3 6 -1 10 4 10
6 0 11 4 11 8 0 13 -34 11 -62 -4z"/>
<path d="M7930 7549 l-25 -20 33 16 c17 8 32 18 32 20 0 10 -16 4 -40 -16z"/>
<path d="M7819 7523 c-1 -5 -1 -12 0 -17 1 -5 -4 -6 -11 -3 -7 2 -20 -3 -28
-11 -13 -14 -12 -15 4 -9 10 4 24 3 30 -2 8 -7 11 -1 11 20 1 26 -3 40 -6 22z"/>
<path d="M7730 7456 c-4 -4 -6 -15 -3 -22 3 -8 0 -21 -7 -29 -7 -9 -10 -18 -7
-21 3 -3 11 5 18 17 15 29 30 44 47 45 26 2 32 4 32 12 0 11 -68 10 -80 -2z"/>
<path d="M7690 7415 c-7 -8 -8 -15 -2 -15 5 0 15 7 22 15 7 8 8 15 2 15 -5 0
-15 -7 -22 -15z"/>
<path d="M7667 7382 c4 -10 2 -13 -5 -8 -7 4 -12 2 -12 -4 0 -7 7 -10 15 -6 8
3 15 1 15 -5 0 -6 5 -7 12 -3 9 6 9 9 -1 12 -10 3 -10 6 -1 12 8 5 5 9 -8 12
-16 4 -19 2 -15 -10z"/>
<path d="M7735 7380 c-3 -5 -1 -10 4 -10 6 0 11 5 11 10 0 6 -2 10 -4 10 -3 0
-8 -4 -11 -10z"/>
<path d="M7569 7303 c-12 -16 -12 -17 2 -6 9 7 19 10 22 6 4 -3 7 -1 7 5 0 17
-16 15 -31 -5z"/>
<path d="M7540 7261 c0 -6 5 -13 10 -16 6 -3 10 1 10 9 0 9 -4 16 -10 16 -5 0
-10 -4 -10 -9z"/>
<path d="M7495 7241 c-3 -5 0 -13 6 -17 8 -5 9 -3 4 6 -6 10 -4 12 9 7 10 -4
15 -3 11 3 -8 13 -22 13 -30 1z"/>
<path d="M7513 7213 c-16 -6 -17 -33 -2 -33 5 0 8 4 5 9 -4 5 0 11 6 14 7 2
11 7 8 9 -3 3 -11 3 -17 1z"/>
<path d="M7510 7149 c0 -5 5 -7 10 -4 6 3 10 8 10 11 0 2 -4 4 -10 4 -5 0 -10
-5 -10 -11z"/>
<path d="M5171 6256 c-9 -11 -8 -15 6 -21 10 -5 21 -7 26 -7 4 1 7 -2 7 -8 0
-5 -5 -10 -11 -10 -8 0 -8 -5 1 -15 7 -8 17 -15 22 -15 7 0 6 5 -1 13 -6 8 -8
17 -5 20 4 3 -3 17 -14 31 -16 21 -22 23 -31 12z"/>
<path d="M5250 6171 c0 -7 -5 -9 -12 -5 -7 5 -8 3 -3 -5 5 -9 10 -10 18 -2 6
6 8 14 4 18 -4 3 -7 1 -7 -6z"/>
<path d="M5381 5963 c6 -7 15 -13 20 -13 5 0 6 6 3 13 -3 8 -11 14 -19 14 -11
0 -12 -4 -4 -14z"/>
<path d="M5420 5921 c0 -6 4 -13 10 -16 6 -3 7 1 4 9 -7 18 -14 21 -14 7z"/>
<path d="M3988 5763 c6 -2 9 -10 6 -15 -4 -7 -2 -8 5 -4 13 9 5 26 -12 25 -9
0 -8 -2 1 -6z"/>
<path d="M4007 5734 c-3 -5 3 -21 14 -34 21 -29 25 -17 5 19 -7 13 -16 20 -19
15z"/>
<path d="M8703 5509 c-18 -12 -30 -26 -27 -34 3 -7 -1 -13 -8 -12 -32 1 -49
-4 -43 -13 3 -5 13 -10 21 -10 9 0 12 5 8 12 -5 7 -2 9 8 6 8 -4 21 -2 29 3
12 8 12 11 -1 19 -13 9 -12 10 4 8 10 -2 25 7 33 20 19 27 17 27 -24 1z"/>
<path d="M8239 5213 c-13 -16 -12 -17 3 -5 14 11 16 11 11 -7 -4 -14 -1 -21
10 -21 19 0 29 24 14 39 -15 15 -22 14 -38 -6z"/>
<path d="M8309 5208 c-9 -30 -6 -35 16 -24 24 11 24 26 -1 26 -8 0 -14 -1 -15
-2z"/>
<path d="M8250 5160 c-8 -5 -12 -11 -9 -14 7 -8 49 5 49 15 0 12 -21 11 -40
-1z"/>
<path d="M8209 5145 c-1 -3 -2 -8 -3 -12 -1 -5 -5 -14 -9 -20 -11 -17 1 -16
19 1 16 17 19 36 4 36 -5 0 -11 -2 -11 -5z"/>
<path d="M5137 4873 c-4 -7 -4 -21 2 -92 1 -11 7 -9 24 7 18 17 26 19 35 10 7
-7 12 -8 12 -4 0 5 8 2 18 -5 9 -7 6 -1 -7 13 -13 15 -28 25 -33 22 -4 -3 -11
2 -14 10 -3 9 -10 13 -15 10 -8 -5 -13 9 -10 29 0 4 -1 7 -3 7 -3 0 -7 -3 -9
-7z m43 -60 c0 -3 -3 -3 -7 0 -3 4 -11 3 -17 -3 -8 -6 -12 -3 -13 11 -2 16 1
17 18 9 10 -6 19 -14 19 -17z"/>
<path d="M6625 4601 c3 -2 0 -12 -6 -22 -7 -15 -6 -17 6 -13 8 3 12 10 9 15
-3 5 2 9 10 9 8 0 17 4 20 9 3 5 -5 8 -18 7 -13 0 -23 -3 -21 -5z"/>
<path d="M6656 4561 c-16 -6 -13 -11 19 -35 22 -17 34 -34 31 -42 -3 -8 -2
-14 3 -14 5 0 11 12 13 28 5 34 -36 73 -66 63z"/>
<path d="M6340 4556 c0 -2 7 -6 15 -10 8 -3 15 -1 15 4 0 6 -7 10 -15 10 -8 0
-15 -2 -15 -4z"/>
<path d="M6640 4490 c0 -13 5 -18 15 -14 12 5 13 10 4 20 -15 19 -19 18 -19
-6z"/>
<path d="M4009 4313 c30 -39 51 -60 51 -50 0 2 -19 23 -41 48 l-42 44 32 -42z"/>
<path d="M4070 4260 c0 -5 10 -15 23 -21 22 -12 22 -12 3 10 -21 23 -26 26
-26 11z"/>
</g>
</svg>
